<svg xmlns="http://www.w3.org/2000/svg" width="24" height="24" viewBox="0 0 24 24" fill="none">
  <path d="M16.7 20.2C16.7 17.8 14.6 15.9 12 15.9C9.4 15.9 7.3 17.8 7.3 20.2" stroke="white" stroke-opacity="0.9" stroke-width="1.6" stroke-linecap="round"/>
  <path d="M12 13.3C13.9 13.3 15.4 11.8 15.4 9.9C15.4 8 13.9 6.5 12 6.5C10.1 6.5 8.6 8 8.6 9.9C8.6 11.8 10.1 13.3 12 13.3Z" stroke="white" stroke-opacity="0.9" stroke-width="1.6"/>
  <path d="M19.4 20.2C19.4 18.5 18.2 17.0 16.4 16.4" stroke="white" stroke-opacity="0.7" stroke-width="1.6" stroke-linecap="round"/>
  <path d="M16.4 7.3C18.1 7.9 19.2 9.8 18.6 11.5C18.3 12.4 17.6 13.1 16.7 13.4" stroke="white" stroke-opacity="0.7" stroke-width="1.6" stroke-linecap="round"/>
</svg>
